<svg width="32" height="32" viewBox="0 0 32 32" fill="none" xmlns="http://www.w3.org/2000/svg">
<g clip-path="url(#clip0)">
<path d="M27.6887 19.6868C26.6177 19.0995 25.4524 18.8274 24.3048 18.8364L24.3146 18.8309C22.7401 18.849 21.4485 17.6245 21.43 16.0963C21.4118 14.5884 22.6386 13.3493 24.1823 13.2978V13.2971L24.1795 13.2957C25.3473 13.2901 26.5288 12.993 27.6052 12.3719C30.8239 10.5142 31.882 6.4754 29.9686 3.35085C28.0548 0.226164 23.8943 -0.80096 20.6757 1.05672C17.457 2.91427 16.399 6.95319 18.3125 10.0777C19.1095 11.3797 18.669 13.0625 17.3279 13.8366C16.0058 14.5995 14.3035 14.1941 13.4914 12.9359L13.4907 12.9362V12.9397C12.9056 11.9589 12.053 11.1115 10.9631 10.5138C7.70306 8.72565 3.56663 9.84153 1.72475 13.0067C-0.117132 16.1712 1.0329 20.1866 4.29305 21.9745C7.55335 23.7627 11.6892 22.6466 13.5312 19.4816C13.5424 19.4625 13.5523 19.4428 13.5631 19.4236V19.4283L13.5638 19.4285C14.3463 18.1509 16.041 17.7083 17.3804 18.4429C18.739 19.1881 19.2177 20.8609 18.4504 22.1794C16.6082 25.3446 17.7584 29.3597 21.0184 31.1475C24.2786 32.9358 28.4149 31.8196 30.2567 28.6546C32.0983 25.4898 30.9487 21.4749 27.6887 19.6868Z" fill="white"/>
</g>
<defs>
<clipPath id="clip0">
<rect width="32" height="32" fill="white"/>
</clipPath>
</defs>
</svg>
