<svg width="153" height="76" viewBox="0 0 153 76" fill="none" xmlns="http://www.w3.org/2000/svg">
<path d="M14.4228 54.432C14.4228 55.328 14.2068 56.168 13.7748 56.952C13.3588 57.736 12.6948 58.368 11.7828 58.848C10.8868 59.328 9.75078 59.568 8.37478 59.568H5.56678V66H2.20678V49.248H8.37478C9.67078 49.248 10.7748 49.472 11.6868 49.92C12.5988 50.368 13.2788 50.984 13.7268 51.768C14.1908 52.552 14.4228 53.44 14.4228 54.432ZM8.23078 56.856C9.15878 56.856 9.84678 56.648 10.2948 56.232C10.7428 55.8 10.9668 55.2 10.9668 54.432C10.9668 52.8 10.0548 51.984 8.23078 51.984H5.56678V56.856H8.23078ZM20.1683 54.768C20.6003 54.064 21.1603 53.512 21.8483 53.112C22.5523 52.712 23.3523 52.512 24.2483 52.512V56.04H23.3603C22.3043 56.04 21.5043 56.288 20.9603 56.784C20.4323 57.28 20.1683 58.144 20.1683 59.376V66H16.8083V52.704H20.1683V54.768ZM28.2155 51.12C27.6235 51.12 27.1275 50.936 26.7275 50.568C26.3435 50.184 26.1515 49.712 26.1515 49.152C26.1515 48.592 26.3435 48.128 26.7275 47.76C27.1275 47.376 27.6235 47.184 28.2155 47.184C28.8075 47.184 29.2955 47.376 29.6795 47.76C30.0795 48.128 30.2795 48.592 30.2795 49.152C30.2795 49.712 30.0795 50.184 29.6795 50.568C29.2955 50.936 28.8075 51.12 28.2155 51.12ZM29.8715 52.704V66H26.5115V52.704H29.8715ZM32.3272 59.352C32.3272 57.976 32.6072 56.776 33.1672 55.752C33.7272 54.712 34.5032 53.912 35.4952 53.352C36.4872 52.776 37.6232 52.488 38.9032 52.488C40.5512 52.488 41.9112 52.904 42.9832 53.736C44.0712 54.552 44.7992 55.704 45.1672 57.192H41.5432C41.3512 56.616 41.0232 56.168 40.5592 55.848C40.1112 55.512 39.5512 55.344 38.8792 55.344C37.9192 55.344 37.1592 55.696 36.5992 56.4C36.0392 57.088 35.7592 58.072 35.7592 59.352C35.7592 60.616 36.0392 61.6 36.5992 62.304C37.1592 62.992 37.9192 63.336 38.8792 63.336C40.2392 63.336 41.1272 62.728 41.5432 61.512H45.1672C44.7992 62.952 44.0712 64.096 42.9832 64.944C41.8952 65.792 40.5352 66.216 38.9032 66.216C37.6232 66.216 36.4872 65.936 35.4952 65.376C34.5032 64.8 33.7272 64 33.1672 62.976C32.6072 61.936 32.3272 60.728 32.3272 59.352ZM59.9887 59.064C59.9887 59.544 59.9567 59.976 59.8927 60.36H50.1727C50.2527 61.32 50.5887 62.072 51.1807 62.616C51.7727 63.16 52.5007 63.432 53.3647 63.432C54.6127 63.432 55.5007 62.896 56.0287 61.824H59.6527C59.2687 63.104 58.5327 64.16 57.4447 64.992C56.3567 65.808 55.0207 66.216 53.4367 66.216C52.1567 66.216 51.0047 65.936 49.9807 65.376C48.9727 64.8 48.1807 63.992 47.6047 62.952C47.0447 61.912 46.7647 60.712 46.7647 59.352C46.7647 57.976 47.0447 56.768 47.6047 55.728C48.1647 54.688 48.9487 53.888 49.9567 53.328C50.9647 52.768 52.1247 52.488 53.4367 52.488C54.7007 52.488 55.8287 52.76 56.8207 53.304C57.8287 53.848 58.6047 54.624 59.1487 55.632C59.7087 56.624 59.9887 57.768 59.9887 59.064ZM56.5087 58.104C56.4927 57.24 56.1807 56.552 55.5727 56.04C54.9647 55.512 54.2207 55.248 53.3407 55.248C52.5087 55.248 51.8047 55.504 51.2287 56.016C50.6687 56.512 50.3247 57.208 50.1967 58.104H56.5087ZM72.7852 49.248V51.96H65.8012V56.256H71.1532V58.92H65.8012V66H62.4412V49.248H72.7852ZM87.5277 59.064C87.5277 59.544 87.4957 59.976 87.4317 60.36H77.7117C77.7917 61.32 78.1277 62.072 78.7197 62.616C79.3117 63.16 80.0397 63.432 80.9037 63.432C82.1517 63.432 83.0397 62.896 83.5677 61.824H87.1917C86.8077 63.104 86.0717 64.16 84.9837 64.992C83.8957 65.808 82.5597 66.216 80.9757 66.216C79.6957 66.216 78.5437 65.936 77.5197 65.376C76.5117 64.8 75.7197 63.992 75.1437 62.952C74.5837 61.912 74.3037 60.712 74.3037 59.352C74.3037 57.976 74.5837 56.768 75.1437 55.728C75.7037 54.688 76.4877 53.888 77.4957 53.328C78.5037 52.768 79.6637 52.488 80.9757 52.488C82.2397 52.488 83.3677 52.76 84.3597 53.304C85.3677 53.848 86.1437 54.624 86.6877 55.632C87.2477 56.624 87.5277 57.768 87.5277 59.064ZM84.0477 58.104C84.0317 57.24 83.7197 56.552 83.1117 56.04C82.5037 55.512 81.7597 55.248 80.8797 55.248C80.0477 55.248 79.3437 55.504 78.7677 56.016C78.2077 56.512 77.8637 57.208 77.7357 58.104H84.0477ZM93.8922 55.464V61.896C93.8922 62.344 93.9962 62.672 94.2042 62.88C94.4282 63.072 94.7962 63.168 95.3082 63.168H96.8682V66H94.7562C91.9242 66 90.5082 64.624 90.5082 61.872V55.464H88.9242V52.704H90.5082V49.416H93.8922V52.704H96.8682V55.464H93.8922ZM98.4209 59.352C98.4209 57.976 98.7009 56.776 99.2609 55.752C99.8209 54.712 100.597 53.912 101.589 53.352C102.581 52.776 103.717 52.488 104.997 52.488C106.645 52.488 108.005 52.904 109.077 53.736C110.165 54.552 110.893 55.704 111.261 57.192H107.637C107.445 56.616 107.117 56.168 106.653 55.848C106.205 55.512 105.645 55.344 104.973 55.344C104.013 55.344 103.253 55.696 102.693 56.4C102.133 57.088 101.853 58.072 101.853 59.352C101.853 60.616 102.133 61.6 102.693 62.304C103.253 62.992 104.013 63.336 104.973 63.336C106.333 63.336 107.221 62.728 107.637 61.512H111.261C110.893 62.952 110.165 64.096 109.077 64.944C107.989 65.792 106.629 66.216 104.997 66.216C103.717 66.216 102.581 65.936 101.589 65.376C100.597 64.8 99.8209 64 99.2609 62.976C98.7009 61.936 98.4209 60.728 98.4209 59.352ZM121.21 52.512C122.218 52.512 123.114 52.736 123.898 53.184C124.682 53.616 125.29 54.264 125.722 55.128C126.17 55.976 126.394 57 126.394 58.2V66H123.034V58.656C123.034 57.6 122.77 56.792 122.242 56.232C121.714 55.656 120.994 55.368 120.082 55.368C119.154 55.368 118.418 55.656 117.874 56.232C117.346 56.792 117.082 57.6 117.082 58.656V66H113.722V48.24H117.082V54.36C117.514 53.784 118.09 53.336 118.81 53.016C119.53 52.68 120.33 52.512 121.21 52.512ZM141.95 59.064C141.95 59.544 141.918 59.976 141.854 60.36H132.134C132.214 61.32 132.55 62.072 133.142 62.616C133.734 63.16 134.462 63.432 135.326 63.432C136.574 63.432 137.462 62.896 137.99 61.824H141.614C141.23 63.104 140.494 64.16 139.406 64.992C138.318 65.808 136.982 66.216 135.398 66.216C134.118 66.216 132.966 65.936 131.942 65.376C130.934 64.8 130.142 63.992 129.566 62.952C129.006 61.912 128.726 60.712 128.726 59.352C128.726 57.976 129.006 56.768 129.566 55.728C130.126 54.688 130.91 53.888 131.918 53.328C132.926 52.768 134.086 52.488 135.398 52.488C136.662 52.488 137.79 52.76 138.782 53.304C139.79 53.848 140.566 54.624 141.11 55.632C141.67 56.624 141.95 57.768 141.95 59.064ZM138.47 58.104C138.454 57.24 138.142 56.552 137.534 56.04C136.926 55.512 136.182 55.248 135.302 55.248C134.47 55.248 133.766 55.504 133.19 56.016C132.63 56.512 132.286 57.208 132.158 58.104H138.47ZM147.762 54.768C148.194 54.064 148.754 53.512 149.442 53.112C150.146 52.712 150.946 52.512 151.842 52.512V56.04H150.954C149.898 56.04 149.098 56.288 148.554 56.784C148.026 57.28 147.762 58.144 147.762 59.376V66H144.402V52.704H147.762V54.768Z" fill="white"/>
<g clip-path="url(#clip0)">
<path d="M52.7456 23.9931C51.4404 23.2773 50.0202 22.9457 48.6215 22.9568L48.6334 22.95C46.7145 22.9721 45.1404 21.4797 45.1179 19.6172C45.0957 17.7794 46.5908 16.2693 48.4722 16.2066V16.2057L48.4688 16.204C49.8921 16.1971 51.332 15.8351 52.6438 15.0781C56.5666 12.814 57.8562 7.89173 55.5242 4.08369C53.1917 0.275469 48.1212 -0.976338 44.1985 1.28771C40.2757 3.55159 38.9863 8.47404 41.3184 12.2821C42.2897 13.8689 41.7528 15.9197 40.1184 16.8632C38.5071 17.793 36.4324 17.2989 35.4427 15.7654L35.4419 15.7658V15.7701C34.7287 14.5747 33.6896 13.542 32.3613 12.8135C28.3881 10.6342 23.3468 11.9942 21.1021 15.8518C18.8573 19.7085 20.2589 24.6022 24.2322 26.7813C28.2057 28.9606 33.2462 27.6004 35.4912 23.743C35.5048 23.7198 35.5168 23.6957 35.5301 23.6723V23.678L35.5309 23.6784C36.4845 22.1213 38.55 21.5818 40.1823 22.4771C41.8381 23.3853 42.4216 25.4241 41.4864 27.031C39.2413 30.8886 40.6431 35.782 44.6162 37.9609C48.5895 40.1403 53.6306 38.78 55.8754 34.9226C58.1199 31.0655 56.7188 26.1723 52.7456 23.9931Z" fill="white"/>
</g>
<path d="M80.2097 32L74.7737 23.54L69.8417 32H64.1537L72.0737 19.328L64.0457 6.872H69.8417L75.2777 15.296L80.1737 6.872H85.8617L77.9777 19.508L86.0057 32H80.2097ZM102.801 32L97.2574 22.208H94.8814V32H89.8414V6.872H99.2734C101.217 6.872 102.873 7.22 104.241 7.916C105.609 8.588 106.629 9.512 107.301 10.688C107.997 11.84 108.345 13.136 108.345 14.576C108.345 16.232 107.865 17.732 106.905 19.076C105.945 20.396 104.517 21.308 102.621 21.812L108.633 32H102.801ZM94.8814 18.428H99.0934C100.461 18.428 101.481 18.104 102.153 17.456C102.825 16.784 103.161 15.86 103.161 14.684C103.161 13.532 102.825 12.644 102.153 12.02C101.481 11.372 100.461 11.048 99.0934 11.048H94.8814V18.428ZM131.228 14.648C131.228 15.992 130.904 17.252 130.256 18.428C129.632 19.604 128.636 20.552 127.268 21.272C125.924 21.992 124.22 22.352 122.156 22.352H117.944V32H112.904V6.872H122.156C124.1 6.872 125.756 7.208 127.124 7.88C128.492 8.552 129.512 9.476 130.184 10.652C130.88 11.828 131.228 13.16 131.228 14.648ZM121.94 18.284C123.332 18.284 124.364 17.972 125.036 17.348C125.708 16.7 126.044 15.8 126.044 14.648C126.044 12.2 124.676 10.976 121.94 10.976H117.944V18.284H121.94Z" fill="white"/>
<defs>
<clipPath id="clip0">
<rect width="39" height="39" fill="white" transform="translate(19)"/>
</clipPath>
</defs>
</svg>
